<?xml version="1.0" encoding="UTF-8" standalone="no" ?>
<!DOCTYPE svg PUBLIC "-//W3C//DTD SVG 1.1//EN" "http://www.w3.org/Graphics/SVG/1.1/DTD/svg11.dtd">
<svg xmlns="http://www.w3.org/2000/svg" xmlns:xlink="http://www.w3.org/1999/xlink" version="1.1" width="1080" height="1080" viewBox="0 0 1080 1080" xml:space="preserve">
<desc>Created with Fabric.js 5.2.4</desc>
<defs>
</defs>
<g transform="matrix(1 0 0 1 540 540)" id="9aaab9b5-d30d-498d-8026-694081242301"  >
<rect style="stroke: none; stroke-width: 1; stroke-dasharray: none; stroke-linecap: butt; stroke-dashoffset: 0; stroke-linejoin: miter; stroke-miterlimit: 4; fill: rgb(255,255,255); fill-rule: nonzero; opacity: 1; visibility: hidden;" vector-effect="non-scaling-stroke"  x="-540" y="-540" rx="0" ry="0" width="1080" height="1080" />
</g>
<g transform="matrix(1 0 0 1 540 540)" id="33867196-2000-4f33-b2ca-783586902f23"  >
</g>
<g transform="matrix(1 0 0 1 540 540)"  >
<g style="" vector-effect="non-scaling-stroke"   >
		<g transform="matrix(1 0 0 1 -63.1 -159.55)"  >
<polygon style="stroke: none; stroke-width: 1; stroke-dasharray: none; stroke-linecap: butt; stroke-dashoffset: 0; stroke-linejoin: miter; stroke-miterlimit: 4; fill: rgb(0,0,0); fill-rule: nonzero; opacity: 1;" vector-effect="non-scaling-stroke"  points="-21.1,52.9 21.1,52.9 21.1,-22.4 51.1,-22.4 51.1,-52.9 -51.1,-52.9 -51.1,-22.4 -21.1,-22.4 " />
</g>
		<g transform="matrix(1 0 0 1 40.6 -159.55)"  >
<polygon style="stroke: none; stroke-width: 1; stroke-dasharray: none; stroke-linecap: butt; stroke-dashoffset: 0; stroke-linejoin: miter; stroke-miterlimit: 4; fill: rgb(0,0,0); fill-rule: nonzero; opacity: 1;" vector-effect="non-scaling-stroke"  points="-21.5,52.9 0,-10.4 21.5,52.9 62.8,52.9 22.3,-52.9 -22.3,-52.9 -62.8,52.9 " />
</g>
		<g transform="matrix(1 0 0 1 144.35 -159.55)"  >
<polygon style="stroke: none; stroke-width: 1; stroke-dasharray: none; stroke-linecap: butt; stroke-dashoffset: 0; stroke-linejoin: miter; stroke-miterlimit: 4; fill: rgb(0,0,0); fill-rule: nonzero; opacity: 1;" vector-effect="non-scaling-stroke"  points="-21.15,52.9 21.15,52.9 21.15,-22.4 51.05,-22.4 51.05,-52.9 -51.05,-52.9 -51.05,-22.4 -21.15,-22.4 " />
</g>
		<g transform="matrix(1 0 0 1 248.1 -159.55)"  >
<polygon style="stroke: none; stroke-width: 1; stroke-dasharray: none; stroke-linecap: butt; stroke-dashoffset: 0; stroke-linejoin: miter; stroke-miterlimit: 4; fill: rgb(0,0,0); fill-rule: nonzero; opacity: 1;" vector-effect="non-scaling-stroke"  points="-21.5,52.9 0,-10.4 21.5,52.9 62.8,52.9 22.3,-52.9 -22.4,-52.9 -62.8,52.9 " />
</g>
		<g transform="matrix(1 0 0 1 656.4 -0.85)"  >
<path style="stroke: none; stroke-width: 1; stroke-dasharray: none; stroke-linecap: butt; stroke-dashoffset: 0; stroke-linejoin: miter; stroke-miterlimit: 4; fill: rgb(0,0,0); fill-rule: nonzero; opacity: 1;" vector-effect="non-scaling-stroke"  transform=" translate(-1656.4, -999.2)" d="M 1631.8 969 C 1637.3999999999999 981.5 1643.7 993.7 1650.8 1005.5 L 1678.3999999999999 1052 L 1698.3999999999999 1052 L 1698.3999999999999 946.3 L 1680.4999999999998 946.3 L 1680.4999999999998 983.1999999999999 C 1680.4999999999998 999.4 1680.8999999999999 1012.9999999999999 1682.1999999999998 1027 L 1681.7999999999997 1027.1 C 1676.5999999999997 1014.8999999999999 1670.5999999999997 1002.9999999999999 1663.7999999999997 991.6999999999999 L 1636.4999999999998 946.3 L 1614.3999999999999 946.3 L 1614.3999999999999 1052.1 L 1632.3 1052.1 L 1632.3 1014.1999999999999 C 1632.3 996.8 1632 982.9 1631.3 969.0999999999999 L 1631.8 969 z" stroke-linecap="round" />
</g>
		<g transform="matrix(1 0 0 1 553.35 -0.85)"  >
<path style="stroke: none; stroke-width: 1; stroke-dasharray: none; stroke-linecap: butt; stroke-dashoffset: 0; stroke-linejoin: miter; stroke-miterlimit: 4; fill: rgb(0,0,0); fill-rule: nonzero; opacity: 1;" vector-effect="non-scaling-stroke"  transform=" translate(-1553.35, -999.2)" d="M 1535.9 1022.2 L 1569.5 1022.2 L 1579.1 1052.1000000000001 L 1599.8 1052.1000000000001 L 1565.3999999999999 946.3000000000002 L 1540.8 946.3000000000002 L 1506.8999999999999 1052.1000000000001 L 1526.8999999999999 1052.1000000000001 L 1535.9 1022.2 z M 1547.2 981.4 C 1549.1000000000001 975.1 1550.7 967.8 1552.2 961.5 L 1552.5 961.5 C 1554.1 967.6 1555.8 974.8 1557.9 981.4 L 1566.2 1007.5 L 1539 1007.5 L 1547.2 981.4 z" stroke-linecap="round" />
</g>
		<g transform="matrix(1 0 0 1 225.45 -0.85)"  >
<path style="stroke: none; stroke-width: 1; stroke-dasharray: none; stroke-linecap: butt; stroke-dashoffset: 0; stroke-linejoin: miter; stroke-miterlimit: 4; fill: rgb(0,0,0); fill-rule: nonzero; opacity: 1;" vector-effect="non-scaling-stroke"  transform=" translate(-1225.45, -999.2)" d="M 1221 1037.7 C 1212.1 1037.6000000000001 1203.3 1035.3 1195.4 1031 L 1191.1000000000001 1047 C 1196.9 1050.5 1208.5000000000002 1053.7 1219.7 1053.7 C 1247 1053.7 1259.8 1038.9 1259.8 1021.9000000000001 C 1259.8 1006.7 1251 997.5000000000001 1232.6 990.5000000000001 C 1218.5 985.1000000000001 1212.3999999999999 981.3000000000001 1212.3999999999999 973.2000000000002 C 1212.3999999999999 967.0000000000001 1217.6 960.5000000000001 1229.8999999999999 960.5000000000001 C 1237.1999999999998 960.4000000000001 1244.4999999999998 962.2000000000002 1250.9999999999998 965.5000000000001 L 1255.5999999999997 949.9000000000001 C 1250.0999999999997 947.1000000000001 1241.6999999999996 944.7 1230.1999999999996 944.7 C 1207.2999999999995 944.7 1192.7999999999995 957.8000000000001 1192.7999999999995 975.1 C 1192.7999999999995 990.3000000000001 1203.9999999999995 999.6 1221.4999999999995 1005.8000000000001 C 1234.8999999999996 1010.7 1240.1999999999996 1015.4000000000001 1240.1999999999996 1023.3000000000001 C 1240.2 1031.9 1233.3 1037.7 1221 1037.7 z" stroke-linecap="round" />
</g>
		<g transform="matrix(1 0 0 1 -73 -0.9)"  >
<path style="stroke: none; stroke-width: 1; stroke-dasharray: none; stroke-linecap: butt; stroke-dashoffset: 0; stroke-linejoin: miter; stroke-miterlimit: 4; fill: rgb(0,0,0); fill-rule: nonzero; opacity: 1;" vector-effect="non-scaling-stroke"  transform=" translate(-927, -999.15)" d="M 943.3 960.6 C 950.4 960.5 957.4 961.9 963.9 964.7 L 968.1 949.3000000000001 C 964.2 947.2 955.2 944.6 942.5 944.6 C 910.2 944.6 885.9 965.6 885.9 1000.4 C 885.9 1032.6 906.3 1053.7 939.9 1053.7 C 952.6999999999999 1053.7 962.8 1051.2 967.3 1048.9 L 964.0999999999999 1033.7 C 958.9999999999999 1036 950.8999999999999 1037.5 942.9999999999999 1037.5 C 919.7999999999998 1037.5 906.1999999999999 1022.7 906.1999999999999 999.4 C 906.2 974 921.7 960.6 943.3 960.6 z" stroke-linecap="round" />
</g>
		<g transform="matrix(1 0 0 1 473.85 -0.85)"  >
<polygon style="stroke: none; stroke-width: 1; stroke-dasharray: none; stroke-linecap: butt; stroke-dashoffset: 0; stroke-linejoin: miter; stroke-miterlimit: 4; fill: rgb(0,0,0); fill-rule: nonzero; opacity: 1;" vector-effect="non-scaling-stroke"  points="9.55,52.9 9.55,-36.7 40.05,-36.7 40.05,-52.9 -40.05,-52.9 -40.05,-36.7 -9.85,-36.7 -9.85,52.9 " />
</g>
		<g transform="matrix(1 0 0 1 847.45 -0.85)"  >
<path style="stroke: none; stroke-width: 1; stroke-dasharray: none; stroke-linecap: butt; stroke-dashoffset: 0; stroke-linejoin: miter; stroke-miterlimit: 4; fill: rgb(0,0,0); fill-rule: nonzero; opacity: 1;" vector-effect="non-scaling-stroke"  transform=" translate(-1847.45, -999.2)" d="M 1869.6 946.3 L 1856.8999999999999 973.4 C 1853.3 981.1 1850.3999999999999 987.6 1847.6999999999998 994.4 L 1847.3999999999999 994.4 C 1844.4999999999998 987.1999999999999 1841.8 981.1999999999999 1838.1999999999998 973.4 L 1825.6 946.3 L 1803.5 946.3 L 1837 1008.0999999999999 L 1837 1052.1 L 1856.3 1052.1 L 1856.3 1007.4999999999999 L 1891.3999999999999 946.2999999999998 L 1869.6 946.3 z" stroke-linecap="round" />
</g>
		<g transform="matrix(1 0 0 1 23.45 -0.85)"  >
<path style="stroke: none; stroke-width: 1; stroke-dasharray: none; stroke-linecap: butt; stroke-dashoffset: 0; stroke-linejoin: miter; stroke-miterlimit: 4; fill: rgb(0,0,0); fill-rule: nonzero; opacity: 1;" vector-effect="non-scaling-stroke"  transform=" translate(-1023.45, -999.2)" d="M 1024.1 944.6 C 994.1999999999999 944.6 973.6999999999999 967.5 973.6999999999999 1000 C 973.6999999999999 1031 992.5999999999999 1053.8 1022.4999999999999 1053.8 L 1022.6999999999999 1053.8 C 1051.6999999999998 1053.8 1073.1999999999998 1033.5 1073.1999999999998 998.0999999999999 C 1073.1 967.9 1054.9 944.6 1024.1 944.6 z M 1023.3 1038.3 L 1023.0999999999999 1038.3 C 1004.5999999999999 1038.3 993.8 1020.5 993.8999999999999 999.5 C 993.9999999999999 978.5 1003.9999999999999 960 1023.2999999999998 960 C 1042.6 960 1052.4999999999998 978.9 1052.4999999999998 998.8 C 1052.6 1021 1042 1038.3 1023.3 1038.3 L 1023.3 1038.3 z" stroke-linecap="round" />
</g>
		<g transform="matrix(1 0 0 1 756.2 -0.9)"  >
<path style="stroke: none; stroke-width: 1; stroke-dasharray: none; stroke-linecap: butt; stroke-dashoffset: 0; stroke-linejoin: miter; stroke-miterlimit: 4; fill: rgb(0,0,0); fill-rule: nonzero; opacity: 1;" vector-effect="non-scaling-stroke"  transform=" translate(-1756.2, -999.15)" d="M 1772.5 960.6 C 1779.6 960.5 1786.6 961.9 1793.1 964.7 L 1797.3 949.3000000000001 C 1793.3999999999999 947.2 1784.3999999999999 944.6 1771.7 944.6 C 1739.4 944.6 1715.1000000000001 965.6 1715.1000000000001 1000.4 C 1715.1000000000001 1032.6 1735.5000000000002 1053.7 1769.1000000000001 1053.7 C 1781.9 1053.7 1792.0000000000002 1051.2 1796.5000000000002 1048.9 L 1793.3000000000002 1033.7 C 1788.2000000000003 1036 1780.1000000000001 1037.5 1772.2000000000003 1037.5 C 1749.0000000000002 1037.5 1735.4000000000003 1022.7 1735.4000000000003 999.4 C 1735.4 974 1750.9 960.6 1772.5 960.6 z" stroke-linecap="round" />
</g>
		<g transform="matrix(1 0 0 1 413.15 -0.85)"  >
<polygon style="stroke: none; stroke-width: 1; stroke-dasharray: none; stroke-linecap: butt; stroke-dashoffset: 0; stroke-linejoin: miter; stroke-miterlimit: 4; fill: rgb(0,0,0); fill-rule: nonzero; opacity: 1;" vector-effect="non-scaling-stroke"  points="-12.05,-52.9 -31.45,-52.9 -31.45,52.9 31.45,52.9 31.45,36.6 -12.05,36.6 " />
</g>
		<g transform="matrix(1 0 0 1 318.4 0)"  >
<path style="stroke: none; stroke-width: 1; stroke-dasharray: none; stroke-linecap: butt; stroke-dashoffset: 0; stroke-linejoin: miter; stroke-miterlimit: 4; fill: rgb(0,0,0); fill-rule: nonzero; opacity: 1;" vector-effect="non-scaling-stroke"  transform=" translate(-1318.4, -1000.05)" d="M 1359.7 1006.7 L 1359.7 946.3000000000001 L 1340.4 946.3000000000001 L 1340.4 1008.0000000000001 C 1340.4 1028.7 1332 1038.3000000000002 1318.1000000000001 1038.3000000000002 C 1305.0000000000002 1038.3000000000002 1296.4 1028.7000000000003 1296.4 1008.0000000000002 L 1296.4 946.3000000000002 L 1277.1000000000001 946.3000000000002 L 1277.1000000000001 1006.8000000000002 C 1277.1000000000001 1040.1000000000001 1293.0000000000002 1053.8000000000002 1317.4 1053.8000000000002 C 1343 1053.8 1359.7 1039.3 1359.7 1006.7 z" stroke-linecap="round" />
</g>
		<g transform="matrix(1 0 0 1 131.6 -0.85)"  >
<path style="stroke: none; stroke-width: 1; stroke-dasharray: none; stroke-linecap: butt; stroke-dashoffset: 0; stroke-linejoin: miter; stroke-miterlimit: 4; fill: rgb(0,0,0); fill-rule: nonzero; opacity: 1;" vector-effect="non-scaling-stroke"  transform=" translate(-1131.6, -999.2)" d="M 1173.6 946.3 L 1155.6999999999998 946.3 L 1155.6999999999998 983.1999999999999 C 1155.6999999999998 999.4 1156.1 1012.9999999999999 1157.3999999999999 1027 L 1156.9999999999998 1027.1 C 1151.7999999999997 1014.8999999999999 1145.7999999999997 1002.9999999999999 1138.9999999999998 991.6999999999999 L 1111.6999999999998 946.3 L 1089.6 946.3 L 1089.6 1052.1 L 1107.5 1052.1 L 1107.5 1014.1999999999999 C 1107.5 996.8 1107.2 982.9 1106.5 969.0999999999999 L 1107 968.9999999999999 C 1112.6 981.4999999999999 1118.9 993.6999999999999 1126 1005.4999999999999 L 1153.6 1052 L 1173.6 1052 L 1173.6 946.3 z" stroke-linecap="round" />
</g>
		<g transform="matrix(1 0 0 1 246.65 157.75)"  >
<rect style="stroke: none; stroke-width: 1; stroke-dasharray: none; stroke-linecap: butt; stroke-dashoffset: 0; stroke-linejoin: miter; stroke-miterlimit: 4; fill: rgb(0,0,0); fill-rule: nonzero; opacity: 1;" vector-effect="non-scaling-stroke"  x="-9.65" y="-52.9" rx="0" ry="0" width="19.3" height="105.8" />
</g>
		<g transform="matrix(1 0 0 1 89.95 157.8)"  >
<path style="stroke: none; stroke-width: 1; stroke-dasharray: none; stroke-linecap: butt; stroke-dashoffset: 0; stroke-linejoin: miter; stroke-miterlimit: 4; fill: rgb(0,0,0); fill-rule: nonzero; opacity: 1;" vector-effect="non-scaling-stroke"  transform=" translate(-1089.95, -1157.85)" d="M 1104.1 1161.1 L 1104.1 1160.6999999999998 C 1114 1157.1999999999998 1123.1999999999998 1147.9999999999998 1123.1999999999998 1134.4999999999998 C 1123.1999999999998 1125.4999999999998 1119.8999999999999 1118.1999999999998 1114.1999999999998 1113.3999999999999 C 1107.1 1107.4999999999998 1094.8999999999999 1104.8999999999999 1081.7999999999997 1104.8999999999999 C 1072.0999999999997 1104.8 1062.2999999999997 1105.4999999999998 1052.7999999999997 1107.1999999999998 L 1052.7999999999997 1210.6999999999998 L 1071.7999999999997 1210.6999999999998 L 1071.7999999999997 1167.6 L 1081.4999999999998 1167.6 C 1092.3999999999999 1167.8999999999999 1097.3999999999999 1172.3 1100.3999999999999 1186 C 1103.3 1199 1105.8 1207.7 1107.3999999999999 1210.8 L 1127.1 1210.8 C 1125 1206.7 1122.1 1194.7 1118.8 1181.5 C 1116.1 1171.2 1111.7 1164 1104.1 1161.1 z M 1083.1 1153.5 L 1071.8 1153.5 L 1071.8 1120.3 C 1075.7 1119.5 1079.7 1119.2 1083.7 1119.3 C 1096.1000000000001 1119.3 1104.1000000000001 1124.7 1104.1000000000001 1136.1 C 1104.1 1146.6 1096.1 1153.5 1083.1 1153.5 z" stroke-linecap="round" />
</g>
		<g transform="matrix(1 0 0 1 179.1 157.75)"  >
<path style="stroke: none; stroke-width: 1; stroke-dasharray: none; stroke-linecap: butt; stroke-dashoffset: 0; stroke-linejoin: miter; stroke-miterlimit: 4; fill: rgb(0,0,0); fill-rule: nonzero; opacity: 1;" vector-effect="non-scaling-stroke"  transform=" translate(-1179.1, -1157.8)" d="M 1189.6 1153.3 C 1185.5 1166.1 1181.6 1179.1 1178.8 1191.5 L 1178.5 1191.5 C 1175.8 1178.7 1172.1 1166.3 1168.1 1153 L 1153.6999999999998 1104.9 L 1132.6 1104.9 L 1166.8 1210.7 L 1189 1210.7 L 1225.6 1104.9 L 1205 1104.9 L 1189.6 1153.3 z" stroke-linecap="round" />
</g>
		<g transform="matrix(1 0 0 1 402.65 157.75)"  >
<polygon style="stroke: none; stroke-width: 1; stroke-dasharray: none; stroke-linecap: butt; stroke-dashoffset: 0; stroke-linejoin: miter; stroke-miterlimit: 4; fill: rgb(0,0,0); fill-rule: nonzero; opacity: 1;" vector-effect="non-scaling-stroke"  points="-12.65,6 27.25,6 27.25,-9.8 -12.65,-9.8 -12.65,-37 29.55,-37 29.55,-52.9 -31.95,-52.9 -31.95,52.9 31.95,52.9 31.95,37 -12.65,37 " />
</g>
		<g transform="matrix(1 0 0 1 314.1 157.7)"  >
<path style="stroke: none; stroke-width: 1; stroke-dasharray: none; stroke-linecap: butt; stroke-dashoffset: 0; stroke-linejoin: miter; stroke-miterlimit: 4; fill: rgb(0,0,0); fill-rule: nonzero; opacity: 1;" vector-effect="non-scaling-stroke"  transform=" translate(-1314.1, -1157.75)" d="M 1330.4 1119.2 C 1337.5 1119.1000000000001 1344.5 1120.5 1351 1123.3 L 1355.2 1107.8999999999999 C 1351.3 1105.8 1342.3 1103.1999999999998 1329.6000000000001 1103.1999999999998 C 1297.3000000000002 1103.1999999999998 1273.0000000000002 1124.1999999999998 1273.0000000000002 1158.9999999999998 C 1273.0000000000002 1191.1999999999998 1293.4000000000003 1212.2999999999997 1327.0000000000002 1212.2999999999997 C 1339.8000000000002 1212.2999999999997 1349.9000000000003 1209.7999999999997 1354.4000000000003 1207.4999999999998 L 1351.2000000000003 1192.2999999999997 C 1346.1000000000004 1194.5999999999997 1338.0000000000002 1196.0999999999997 1330.1000000000004 1196.0999999999997 C 1306.9000000000003 1196.0999999999997 1293.3000000000004 1181.2999999999997 1293.3000000000004 1157.9999999999998 C 1293.2 1132.7 1308.7 1119.2 1330.4 1119.2 z" stroke-linecap="round" />
</g>
		<g transform="matrix(1 0 0 1 -79.75 157.75)"  >
<path style="stroke: none; stroke-width: 1; stroke-dasharray: none; stroke-linecap: butt; stroke-dashoffset: 0; stroke-linejoin: miter; stroke-miterlimit: 4; fill: rgb(0,0,0); fill-rule: nonzero; opacity: 1;" vector-effect="non-scaling-stroke"  transform=" translate(-920.25, -1157.8)" d="M 927.3 1149.1 C 913.1999999999999 1143.6999999999998 907.0999999999999 1139.8999999999999 907.0999999999999 1131.8 C 907.0999999999999 1125.6 912.3 1119.1 924.5999999999999 1119.1 C 931.8999999999999 1119 939.1999999999999 1120.8 945.6999999999999 1124.1 L 950.3 1108.5 C 944.8 1105.7 936.4 1103.3 924.9 1103.3 C 902 1103.3 887.5 1116.3999999999999 887.5 1133.7 C 887.5 1148.9 898.7 1158.2 916.2 1164.4 C 929.6 1169.3000000000002 934.9000000000001 1174 934.9000000000001 1181.9 C 934.9000000000001 1190.6000000000001 928.0000000000001 1196.3000000000002 915.7 1196.3000000000002 C 906.8000000000001 1196.2000000000003 898 1193.9 890.2 1189.6000000000001 L 885.9000000000001 1205.6000000000001 C 891.7 1209.1000000000001 903.3000000000001 1212.3000000000002 914.5000000000001 1212.3000000000002 C 941.8000000000001 1212.3000000000002 954.6000000000001 1197.5000000000002 954.6000000000001 1180.5000000000002 C 954.5 1165.4 945.7 1156.1 927.3 1149.1 z" stroke-linecap="round" />
</g>
		<g transform="matrix(1 0 0 1 3.85 157.75)"  >
<polygon style="stroke: none; stroke-width: 1; stroke-dasharray: none; stroke-linecap: butt; stroke-dashoffset: 0; stroke-linejoin: miter; stroke-miterlimit: 4; fill: rgb(0,0,0); fill-rule: nonzero; opacity: 1;" vector-effect="non-scaling-stroke"  points="-12.65,6 27.25,6 27.25,-9.8 -12.65,-9.8 -12.65,-37 29.65,-37 29.65,-52.9 -31.95,-52.9 -31.95,52.9 31.95,52.9 31.95,37 -12.65,37 " />
</g>
		<g transform="matrix(1 0 0 1 481.25 157.75)"  >
<path style="stroke: none; stroke-width: 1; stroke-dasharray: none; stroke-linecap: butt; stroke-dashoffset: 0; stroke-linejoin: miter; stroke-miterlimit: 4; fill: rgb(0,0,0); fill-rule: nonzero; opacity: 1;" vector-effect="non-scaling-stroke"  transform=" translate(-1481.25, -1157.8)" d="M 1488.4 1149.1 C 1474.3000000000002 1143.6999999999998 1468.2 1139.8999999999999 1468.2 1131.8 C 1468.2 1125.6 1473.4 1119.1 1485.7 1119.1 C 1493 1119 1500.3 1120.8 1506.8 1124.1 L 1511.3999999999999 1108.5 C 1505.8999999999999 1105.7 1497.4999999999998 1103.3 1485.9999999999998 1103.3 C 1463.0999999999997 1103.3 1448.5999999999997 1116.3999999999999 1448.5999999999997 1133.7 C 1448.5999999999997 1148.9 1459.7999999999997 1158.2 1477.2999999999997 1164.4 C 1490.6999999999998 1169.3000000000002 1495.9999999999998 1174 1495.9999999999998 1181.9 C 1495.9999999999998 1190.6000000000001 1489.0999999999997 1196.3000000000002 1476.7999999999997 1196.3000000000002 C 1467.7999999999997 1196.2000000000003 1459.0999999999997 1193.9 1451.1999999999998 1189.6000000000001 L 1446.8999999999999 1205.6000000000001 C 1452.6999999999998 1209.1000000000001 1464.3 1212.3000000000002 1475.4999999999998 1212.3000000000002 C 1502.7999999999997 1212.3000000000002 1515.5999999999997 1197.5000000000002 1515.5999999999997 1180.5000000000002 C 1515.6 1165.4 1506.7 1156.1 1488.4 1149.1 z" stroke-linecap="round" />
</g>
		<g transform="matrix(1 0 0 1 -552.9 0.05)"  >
<path style="stroke: none; stroke-width: 1; stroke-dasharray: none; stroke-linecap: butt; stroke-dashoffset: 0; stroke-linejoin: miter; stroke-miterlimit: 4; fill: rgb(0,0,0); fill-rule: nonzero; opacity: 1;" vector-effect="non-scaling-stroke"  transform=" translate(-447.1, -1000.1)" d="M 734 1033.1 L 683.7 998.0999999999999 C 683.1 997.6999999999999 682.5 997.1999999999999 681.9000000000001 996.8 C 663.5000000000001 983.1999999999999 655.5000000000001 970.5999999999999 655.5000000000001 955.8 C 655.5000000000001 936.1999999999999 671.5000000000001 923.9 694.2000000000002 923.9 C 723.0000000000001 923.9 736.6000000000001 937.4 753.7000000000002 937.4 C 767.2000000000002 937.4 776.4000000000002 928.1999999999999 776.4000000000002 914.6999999999999 C 776.4000000000002 904.9 771.5000000000002 896.9 758.6000000000003 890.8 C 738.3000000000003 881 716.2000000000003 877.3 692.3000000000003 877.3 C 667.2000000000003 877.3 645.1000000000003 884.6999999999999 629.1000000000003 896.9 C 629.1000000000003 896.9 629.1000000000003 896.9 629.1000000000003 896.9 C 625.9000000000002 899.4 622.7000000000003 902.1 619.8000000000003 904.9 C 619.7000000000003 905 619.5000000000003 905.1999999999999 619.4000000000003 905.3 C 601.2000000000003 924.9 585.9000000000003 953.6999999999999 573.8000000000003 993.9 L 559.7000000000003 1040.5 C 534.5000000000002 1122.7 494.7000000000003 1162 432.60000000000025 1162 C 364.5000000000002 1162 321.5000000000002 1114.7 321.5000000000002 1044.8 C 321.5000000000002 976.0999999999999 363.0000000000002 928.5999999999999 423.2000000000002 927 C 424.30000000000024 927 425.4000000000002 927 426.5000000000002 927 C 446.9000000000002 926.9 467.0000000000002 931.3 485.4000000000002 939.9 C 493.4000000000002 943.6 500.1000000000002 944.8 506.3000000000002 944.8 C 521.0000000000002 944.8 530.8000000000002 934.9 530.8000000000002 920.1999999999999 C 530.8000000000002 920.1999999999999 530.8000000000002 920.1999999999999 530.8000000000002 920.1999999999999 C 530.8000000000002 920.1999999999999 530.8000000000002 920.1999999999999 530.8000000000002 920.1999999999999 C 530.8000000000002 910.9999999999999 525.3000000000002 901.8 512.4000000000002 895.6999999999999 C 489.1000000000002 883.9999999999999 459.0000000000002 877.3 426.5000000000002 877.3 C 329.5000000000002 877.3 262.60000000000025 946 262.60000000000025 1046.1 C 262.60000000000025 1046.1 262.60000000000025 1046.1 262.60000000000025 1046.1 C 262.60000000000025 1046.1 262.60000000000025 1046.1 262.60000000000025 1046.1 C 262.60000000000025 1072.5 267.30000000000024 1096.6999999999998 276.10000000000025 1118 C 263.30000000000024 1145.7 243.90000000000026 1160.3 218.50000000000026 1160.3 C 187.80000000000027 1160.3 167.60000000000025 1142.5 167.60000000000025 1102 L 167.60000000000025 928.8 L 239.40000000000026 928.8 C 256.0000000000003 928.8 267.0000000000003 919 267.0000000000003 904.9 C 267.0000000000003 890.8 256.0000000000003 881 239.4000000000003 881 L 167.6000000000003 881 L 167.6000000000003 818.4 C 167.6000000000003 800 155.3000000000003 787.6999999999999 138.1000000000003 787.6999999999999 C 120.90000000000032 787.6999999999999 108.6000000000003 799.9999999999999 108.6000000000003 818.4 L 108.6000000000003 939.9 L 108.6000000000003 1108.7 C 108.6000000000003 1176.2 147.3000000000003 1211.8 212.90000000000032 1211.8 C 226.6000000000003 1211.8 240.20000000000033 1209.6 253.20000000000033 1205.1 C 253.30000000000032 1205.1 253.30000000000032 1205.1 253.40000000000032 1205.1 C 274.9000000000003 1197 292.20000000000033 1182.8999999999999 304.4000000000003 1162.5 C 333.6000000000003 1194 376.9000000000003 1212.4 430.8000000000003 1212.4 C 459.0000000000003 1212.4 483.5000000000003 1206.9 505.6000000000003 1195.3000000000002 C 505.6000000000003 1195.3000000000002 505.70000000000033 1195.3000000000002 505.70000000000033 1195.3000000000002 C 550.5000000000003 1172.0000000000002 582.4000000000003 1124.7000000000003 604.5000000000003 1052.3000000000002 L 617.4000000000003 1010.0000000000002 C 626.0000000000003 1021.5000000000002 638.1000000000004 1032.4000000000003 654.2000000000003 1043.7000000000003 L 700.2000000000003 1075.6000000000004 C 707.0000000000002 1080.3000000000004 713.2000000000003 1085.1000000000004 719.0000000000002 1089.8000000000004 C 727.3000000000002 1098.9000000000003 729.7000000000003 1108.8000000000004 729.7000000000003 1120.4000000000003 C 729.7000000000003 1146.8000000000004 708.8000000000003 1164.6000000000004 678.8000000000003 1164.6000000000004 C 650.0000000000003 1164.6000000000004 625.4000000000003 1149.9000000000003 611.9000000000003 1149.9000000000003 C 598.4000000000003 1149.9000000000003 589.2000000000003 1159.1000000000004 589.2000000000003 1172.6000000000004 C 589.2000000000003 1182.4000000000003 594.1000000000003 1190.4000000000003 607.0000000000002 1196.5000000000005 C 624.8000000000002 1205.1000000000004 653.6000000000003 1212.5000000000005 679.4000000000002 1212.5000000000005 C 711.9000000000002 1212.5000000000005 738.9000000000002 1202.7000000000005 758.0000000000002 1185.5000000000005 C 758.9000000000002 1184.7000000000005 759.8000000000002 1183.9000000000005 760.6000000000003 1183.0000000000005 C 776.2000000000003 1167.2000000000005 785.6000000000003 1145.5000000000005 785.6000000000003 1120.5000000000005 C 785.6 1083.5 770.9 1058.9 734 1033.1 z" stroke-linecap="round" />
</g>
</g>
</g>
</svg>